# xmcd CD database file
#
# Track frame offsets:
#	150
#	23747
#	47460
#	68737
#	93667
#	113685
#	134375
#	156632
#	174480
#	197075
#	220975
#	238272
#
# Disc length: 3353 seconds
#
# Revision: 2
# Processed by: cddbd v1.4PL0 Copyright (c) Steve Scherf et al.
# Submitted via: CDex 1.50beta10
#
DISCID=aa0d170c
DTITLE=T trai Band - A Hold szerelme
DYEAR=1900
DGENRE=
TTITLE0=Köszöntelek a Földön
TTITLE1=A Hold szerelme
TTITLE2=Adj még esélyt
TTITLE3=Vigyázz magadra
TTITLE4=Régi barátok
TTITLE5=A fekete madár
TTITLE6=Nehéz játék
TTITLE7=Kötelezõ kapcsolat
TTITLE8=Sápadt csillagok
TTITLE9=Az éjszaka ablakai
TTITLE10=Furcsa mosoly
TTITLE11=A csend
EXTD=
EXTT0=
EXTT1=
EXTT2=
EXTT3=
EXTT4=
EXTT5=
EXTT6=
EXTT7=
EXTT8=
EXTT9=
EXTT10=
EXTT11=
PLAYORDER=
